<svg style="display:none" xmlns="http://www.w3.org/2000/svg" xmlns:xlink="http://www.w3.org/1999/xlink" version="1.1">
	<symbol id="search" width="16" height="17" viewBox="0 0 16 17" fill="none" xmlns="http://www.w3.org/2000/svg"><path d="M11.5 6.9718C11.5 5.19055 10.5312 3.56555 9 2.6593C7.4375 1.75305 5.53125 1.75305 4 2.6593C2.4375 3.56555 1.5 5.19055 1.5 6.9718C1.5 8.7843 2.4375 10.4093 4 11.3156C5.53125 12.2218 7.4375 12.2218 9 11.3156C10.5312 10.4093 11.5 8.7843 11.5 6.9718ZM10.5312 12.0968C9.40625 12.9718 8 13.4718 6.5 13.4718C2.90625 13.4718 0 10.5656 0 6.9718C0 3.4093 2.90625 0.471802 6.5 0.471802C10.0625 0.471802 13 3.4093 13 6.9718C13 8.50305 12.4688 9.9093 11.5938 11.0343L15.4688 14.9093L16 15.4406L14.9375 16.4718L14.4062 15.9406L10.5312 12.0656V12.0968Z" fill="white" fill-opacity="0.6"/></symbol>
	<symbol id="shopping_bag" xmlns="http://www.w3.org/2000/svg" viewBox="0 -960 960 960" fill="currentColor"><path d="M240-80q-33 0-56.5-23.5T160-160v-480q0-33 23.5-56.5T240-720h80q0-66 47-113t113-47q66 0 113 47t47 113h80q33 0 56.5 23.5T800-640v480q0 33-23.5 56.5T720-80H240Zm0-80h480v-480h-80v80q0 17-11.5 28.5T600-520q-17 0-28.5-11.5T560-560v-80H400v80q0 17-11.5 28.5T360-520q-17 0-28.5-11.5T320-560v-80h-80v480Zm160-560h160q0-33-23.5-56.5T480-800q-33 0-56.5 23.5T400-720ZM240-160v-480 480Z"/></symbol>
	<symbol id="menu" xmlns="http://www.w3.org/2000/svg" viewBox="0 -960 960 960" fill="currentColor"><path d="M120-240v-80h720v80H120Zm0-200v-80h720v80H120Zm0-200v-80h720v80H120Z"/></symbol>
	<symbol id="account_circle" xmlns="http://www.w3.org/2000/svg" viewBox="0 -960 960 960" fill="currentColor"><path d="M234-276q51-39 114-61.5T480-360q69 0 132 22.5T726-276q35-41 54.5-93T800-480q0-133-93.5-226.5T480-800q-133 0-226.5 93.5T160-480q0 59 19.5 111t54.5 93Zm246-164q-59 0-99.5-40.5T340-580q0-59 40.5-99.5T480-720q59 0 99.5 40.5T620-580q0 59-40.5 99.5T480-440Zm0 360q-83 0-156-31.5T197-197q-54-54-85.5-127T80-480q0-83 31.5-156T197-763q54-54 127-85.5T480-880q83 0 156 31.5T763-763q54 54 85.5 127T880-480q0 83-31.5 156T763-197q-54 54-127 85.5T480-80Zm0-80q53 0 100-15.5t86-44.5q-39-29-86-44.5T480-280q-53 0-100 15.5T294-220q39 29 86 44.5T480-160Zm0-360q26 0 43-17t17-43q0-26-17-43t-43-17q-26 0-43 17t-17 43q0 26 17 43t43 17Zm0-60Zm0 360Z"/></symbol>
	<symbol id="close" xmlns="http://www.w3.org/2000/svg" viewBox="0 -960 960 960" fill="currentColor"><path d="m256-200-56-56 224-224-224-224 56-56 224 224 224-224 56 56-224 224 224 224-56 56-224-224-224 224Z"/></symbol>
	<symbol id="chevron-right" xmlns="http://www.w3.org/2000/svg" viewBox="0 -960 960 960" fill="currentColor"><path d="M504-480 320-664l56-56 240 240-240 240-56-56 184-184Z"/></symbol>
	<symbol id="favorite" xmlns="http://www.w3.org/2000/svg" viewBox="0 -960 960 960" fill="currentColor"><path d="m480-120-58-52q-101-91-167-157T150-447.5Q111-500 95.5-544T80-634q0-94 63-157t157-63q52 0 99 22t81 62q34-40 81-62t99-22q94 0 157 63t63 157q0 46-15.5 90T810-447.5Q771-395 705-329T538-172l-58 52Zm0-108q96-86 158-147.5t98-107q36-45.5 50-81t14-70.5q0-60-40-100t-100-40q-47 0-87 26.5T518-680h-76q-15-41-55-67.5T300-774q-60 0-100 40t-40 100q0 35 14 70.5t50 81q36 45.5 98 107T480-228Zm0-273Z"/></symbol>
	<symbol id="home_pin" xmlns="http://www.w3.org/2000/svg" viewBox="0 -960 960 960" fill="currentColor"><path d="M360-440h80v-110h80v110h80v-190l-120-80-120 80v190Zm120 254q122-112 181-203.5T720-552q0-109-69.5-178.5T480-800q-101 0-170.5 69.5T240-552q0 71 59 162.5T480-186Zm0 106Q319-217 239.5-334.5T160-552q0-150 96.5-239T480-880q127 0 223.5 89T800-552q0 100-79.5 217.5T480-80Zm0-480Z"/></symbol>
	<symbol id="call" xmlns="http://www.w3.org/2000/svg" viewBox="0 -960 960 960" fill="currentColor"><path d="M798-120q-125 0-247-54.5T329-329Q229-429 174.5-551T120-798q0-18 12-30t30-12h162q14 0 25 9.5t13 22.5l26 140q2 16-1 27t-11 19l-97 98q20 37 47.5 71.5T387-386q31 31 65 57.5t72 48.5l94-94q9-9 23.5-13.5T670-390l138 28q14 4 23 14.5t9 23.5v162q0 18-12 30t-30 12ZM241-600l66-66-17-94h-89q5 41 14 81t26 79Zm358 358q39 17 79.5 27t81.5 13v-88l-94-19-67 67ZM241-600Zm358 358Z"/></symbol>
	<symbol id="local_shipping" xmlns="http://www.w3.org/2000/svg" viewBox="0 -960 960 960" fill="currentColor"><path d="M240-160q-50 0-85-35t-35-85H40v-440q0-33 23.5-56.5T120-800h560v160h120l120 160v200h-80q0 50-35 85t-85 35q-50 0-85-35t-35-85H360q0 50-35 85t-85 35Zm0-80q17 0 28.5-11.5T280-280q0-17-11.5-28.5T240-320q-17 0-28.5 11.5T200-280q0 17 11.5 28.5T240-240ZM120-360h32q17-18 39-29t49-11q27 0 49 11t39 29h272v-360H120v360Zm600 120q17 0 28.5-11.5T760-280q0-17-11.5-28.5T720-320q-17 0-28.5 11.5T680-280q0 17 11.5 28.5T720-240Zm-40-200h170l-90-120h-80v120ZM360-540Z"/></symbol>
	<symbol id="pan_zoom" xmlns="http://www.w3.org/2000/svg" viewBox="0 -960 960 960" fill="currentColor"><path d="M120-120v-240h80v104l124-124 56 56-124 124h104v80H120Zm516-460-56-56 124-124H600v-80h240v240h-80v-104L636-580Z"/></symbol>
	<symbol id="share" xmlns="http://www.w3.org/2000/svg" viewBox="0 -960 960 960" fill="currentColor"><path d="M720-80q-50 0-85-35t-35-85q0-7 1-14.5t3-13.5L322-392q-17 15-38 23.5t-44 8.5q-50 0-85-35t-35-85q0-50 35-85t85-35q23 0 44 8.5t38 23.5l282-164q-2-6-3-13.5t-1-14.5q0-50 35-85t85-35q50 0 85 35t35 85q0 50-35 85t-85 35q-23 0-44-8.5T638-672L356-508q2 6 3 13.5t1 14.5q0 7-1 14.5t-3 13.5l282 164q17-15 38-23.5t44-8.5q50 0 85 35t35 85q0 50-35 85t-85 35Zm0-640q17 0 28.5-11.5T760-760q0-17-11.5-28.5T720-800q-17 0-28.5 11.5T680-760q0 17 11.5 28.5T720-720ZM240-440q17 0 28.5-11.5T280-480q0-17-11.5-28.5T240-520q-17 0-28.5 11.5T200-480q0 17 11.5 28.5T240-440Zm480 280q17 0 28.5-11.5T760-200q0-17-11.5-28.5T720-240q-17 0-28.5 11.5T680-200q0 17 11.5 28.5T720-160Zm0-600ZM240-480Zm480 280Z"/></symbol>
	<symbol id="sell" xmlns="http://www.w3.org/2000/svg" viewBox="0 -960 960 960" fill="currentColor"><path d="M856-390 570-104q-12 12-27 18t-30 6q-15 0-30-6t-27-18L103-457q-11-11-17-25.5T80-513v-287q0-33 23.5-56.5T160-880h287q16 0 31 6.5t26 17.5l352 353q12 12 17.5 27t5.5 30q0 15-5.5 29.5T856-390ZM513-160l286-286-353-354H160v286l353 354ZM260-640q25 0 42.5-17.5T320-700q0-25-17.5-42.5T260-760q-25 0-42.5 17.5T200-700q0 25 17.5 42.5T260-640Zm220 160Z"/></symbol>
	<symbol id="check-circle" xmlns="http://www.w3.org/2000/svg" viewBox="0 -960 960 960" fill="currentColor"><path d="m424-296 282-282-56-56-226 226-114-114-56 56 170 170Zm56 216q-83 0-156-31.5T197-197q-54-54-85.5-127T80-480q0-83 31.5-156T197-763q54-54 127-85.5T480-880q83 0 156 31.5T763-763q54 54 85.5 127T880-480q0 83-31.5 156T763-197q-54 54-127 85.5T480-80Zm0-80q134 0 227-93t93-227q0-134-93-227t-227-93q-134 0-227 93t-93 227q0 134 93 227t227 93Zm0-320Z"/></symbol>
	<symbol id="error" xmlns="http://www.w3.org/2000/svg" viewBox="0 -960 960 960" fill="currentColor"><path d="M480-280q17 0 28.5-11.5T520-320q0-17-11.5-28.5T480-360q-17 0-28.5 11.5T440-320q0 17 11.5 28.5T480-280Zm-40-160h80v-240h-80v240Zm40 360q-83 0-156-31.5T197-197q-54-54-85.5-127T80-480q0-83 31.5-156T197-763q54-54 127-85.5T480-880q83 0 156 31.5T763-763q54 54 85.5 127T880-480q0 83-31.5 156T763-197q-54 54-127 85.5T480-80Zm0-80q134 0 227-93t93-227q0-134-93-227t-227-93q-134 0-227 93t-93 227q0 134 93 227t227 93Zm0-320Z"/></symbol>
	<symbol id="trash" xmlns="http://www.w3.org/2000/svg" viewBox="0 -960 960 960" fill="currentColor"><path d="M280-120q-33 0-56.5-23.5T200-200v-520h-40v-80h200v-40h240v40h200v80h-40v520q0 33-23.5 56.5T680-120H280Zm400-600H280v520h400v-520ZM360-280h80v-360h-80v360Zm160 0h80v-360h-80v360ZM280-720v520-520Z"/></symbol>
	<symbol id="HomeIco" width="18" height="17" viewBox="0 0 18 17" fill="none" xmlns="http://www.w3.org/2000/svg"><path d="M15.9688 9.4436L16 16.4436H11V11.4436H7V16.4436H2V9.4436H0V7.9436L9 0.443604L18 7.9436V9.4436H15.9688Z" fill="currentColor"/></symbol>
	<symbol id="bookIco" width="18" height="15" viewBox="0 0 18 15" fill="none" xmlns="http://www.w3.org/2000/svg"><path d="M9 14.4436C9 14.4436 6.96875 13.2561 4.5 13.1936C3.59375 13.1936 2.40625 13.3811 1.5 13.5999C0.625 13.7874 0 13.9436 0 13.9436V12.4124V1.6936C0 1.6936 2 0.443604 5 0.443604C7.25 0.443604 9 1.1936 9 1.1936C9 1.1936 11 0.443604 13 0.443604C16 0.443604 18 1.6936 18 1.6936V12.4124V13.9436C18 13.9436 17.3438 13.7874 16.5 13.5999C15.5625 13.4124 14.375 13.1936 13.5 13.1936C11 13.2561 9 14.4436 9 14.4436ZM16.5 12.0686V2.6311C16.375 2.59985 16.25 2.53735 16.0938 2.5061C15.3438 2.22485 14.2812 1.9436 13 1.9436C12.1562 1.9436 11.2812 2.1311 10.5938 2.28735C10.25 2.3811 9.96875 2.4436 9.78125 2.5061C9.78125 2.53735 9.75 2.53735 9.71875 2.53735V12.4436C9.75 12.4436 9.75 12.4436 9.78125 12.4436C10.6875 12.0999 12 11.7249 13.4688 11.6936C14.4375 11.6936 15.5938 11.8811 16.4688 12.0686H16.5ZM8.25 12.4436V2.53735C8.21875 2.5061 8.1875 2.5061 8.1875 2.5061C8 2.4436 7.75 2.34985 7.4375 2.28735C6.8125 2.1311 5.9375 1.9436 5 1.9436C3.6875 1.9436 2.625 2.22485 1.875 2.5061C1.71875 2.53735 1.59375 2.59985 1.5 2.6311V12.0686C2.375 11.8811 3.53125 11.6936 4.5 11.6936C5.96875 11.7249 7.28125 12.0999 8.1875 12.4436C8.21875 12.4436 8.21875 12.4436 8.25 12.4436Z" fill="currentColor"/></symbol>
	<symbol id="chartIco" width="17" height="17" viewBox="0 0 17 17" fill="none" xmlns="http://www.w3.org/2000/svg"><path d="M15.9062 6.4436C15.9375 6.6311 15.9688 6.78735 15.9688 6.9436C15.9688 7.1311 16 7.28735 16 7.4436C16 7.6311 15.9688 7.78735 15.9688 7.9436H10H8.5V6.4436V0.474854C8.65625 0.474854 8.8125 0.443604 9 0.443604C9.15625 0.443604 9.3125 0.474854 9.5 0.474854C9.65625 0.474854 9.8125 0.506104 10 0.537354C13.0625 0.974854 15.4688 3.3811 15.9062 6.4436ZM10 2.03735V6.4436H14.4062C14 4.22485 12.2188 2.4436 10 2.03735ZM5.5 10.0686V9.4436V3.28735C3.15625 4.1311 1.5 6.34985 1.5 8.9436C1.5 12.2561 4.1875 14.9436 7.5 14.9436C8.34375 14.9436 9.15625 14.7874 9.875 14.4749L5.9375 10.5061L5.5 10.0686ZM11.1875 13.6624L12.2812 14.7249C11.875 15.0686 11.4375 15.3499 11 15.5999C9.9375 16.1311 8.75 16.4436 7.5 16.4436C3.34375 16.4436 0 13.0999 0 8.9436C0 5.5061 2.3125 2.59985 5.5 1.72485C5.96875 1.59985 6.46875 1.5061 7 1.47485V2.97485V9.4436L11.1875 13.6624ZM9 9.4436H16.9688C16.8438 11.5686 15.8125 13.4749 14.2812 14.7249L9 9.4436Z" fill="currentColor"/></symbol>
	<symbol id="configIco" width="18" height="17" viewBox="0 0 18 17" fill="none" xmlns="http://www.w3.org/2000/svg"><path d="M11.25 0.443604L11.6875 2.53735C12.0625 2.72485 12.4062 2.91235 12.75 3.16235L14.7812 2.5061L17.0312 6.41235L15.4688 7.84985C15.4688 8.03735 15.4688 8.2561 15.4688 8.4436C15.4688 8.66235 15.4688 8.84985 15.4688 9.0686L17.0312 10.5061L14.7812 14.4124L12.75 13.7561C12.4062 13.9749 12.0625 14.1936 11.6875 14.3499L11.25 16.4436H6.75L6.28125 14.3811C5.90625 14.1936 5.5625 14.0061 5.21875 13.7561L3.1875 14.4124L0.9375 10.5061L2.5 9.0686C2.5 8.8811 2.5 8.66235 2.5 8.47485C2.5 8.2561 2.5 8.03735 2.5 7.84985L0.9375 6.41235L3.1875 2.5061L5.21875 3.16235C5.5625 2.91235 5.90625 2.72485 6.28125 2.53735L6.75 0.443604H11.25ZM13.2188 4.59985L12.5 4.8186L11.875 4.3811C11.625 4.1936 11.3438 4.03735 11.0625 3.91235L10.375 3.59985L10.2188 2.8811L10.0312 1.9436H7.9375L7.75 2.8811L7.59375 3.59985L6.90625 3.91235C6.625 4.03735 6.34375 4.1936 6.09375 4.3811L5.46875 4.8186L4.78125 4.59985L3.875 4.3186L2.84375 6.09985L3.53125 6.72485L4.0625 7.2561L4 7.97485C4 8.1311 4 8.28735 4 8.4436C4 8.6311 4 8.78735 4 8.9436L4.0625 9.66235L3.53125 10.1624L2.84375 10.8186L3.875 12.5999L4.78125 12.3186L5.46875 12.0999L6.09375 12.5374C6.34375 12.7249 6.625 12.8811 6.90625 13.0061L7.59375 13.3186L7.75 14.0374L7.9375 14.9749H10.0312L10.2188 14.0374L10.375 13.3186L11.0625 13.0061C11.3438 12.8811 11.625 12.7249 11.875 12.5374L12.5 12.0999L13.2188 12.3186L14.0938 12.5999L15.125 10.8186L14.4375 10.1624L13.9062 9.66235L13.9688 8.9436C13.9688 8.78735 14 8.6311 14 8.4436C14 8.28735 13.9688 8.1311 13.9688 7.97485L13.9062 7.2561L14.4375 6.72485L15.125 6.09985L14.0938 4.3186L13.2188 4.59985ZM10.5 8.4436C10.5 7.91235 10.1875 7.4436 9.75 7.16235C9.28125 6.8811 8.6875 6.8811 8.25 7.16235C7.78125 7.4436 7.5 7.91235 7.5 8.4436C7.5 9.0061 7.78125 9.47485 8.25 9.7561C8.6875 10.0374 9.28125 10.0374 9.75 9.7561C10.1875 9.47485 10.5 9.0061 10.5 8.4436ZM6 8.4436C6 7.3811 6.5625 6.41235 7.5 5.84985C8.40625 5.3186 9.5625 5.3186 10.5 5.84985C11.4062 6.41235 12 7.3811 12 8.4436C12 9.53735 11.4062 10.5061 10.5 11.0686C9.5625 11.5999 8.40625 11.5999 7.5 11.0686C6.5625 10.5061 6 9.53735 6 8.4436Z" fill="currentColor"/></symbol>
	<symbol id="sack_dollar" width="16" height="17" viewBox="0 0 16 17" fill="none" xmlns="http://www.w3.org/2000/svg"><path d="M11.25 3.03125L10.4062 4.28125C10.6562 4.4375 10.9375 4.65625 11.2812 4.875C13.1875 6.3125 16 9.09375 16 13.5V15V16.5H14.5H1.5H0V15V13.5C0 9.09375 2.78125 6.3125 4.6875 4.875C5.03125 4.65625 5.3125 4.4375 5.59375 4.28125L4.71875 3.03125L4.03125 2L3 0.5H4.8125H11.1562H13L11.9375 2L11.25 3.03125ZM14.5 15V13.5C14.5 9.15625 11.2812 6.625 9.59375 5.53125L9.15625 5.25H6.8125L6.375 5.53125C4.6875 6.625 1.5 9.15625 1.5 13.5V15H14.5ZM9.15625 3.4375L10.125 2H5.84375L6.8125 3.4375L7.0625 3.75H8.9375L9.15625 3.4375ZM8.625 7.5H8.59375V7.71875C8.8125 7.75 9.125 7.8125 9.28125 7.84375L9.875 8L9.5625 9.21875L8.9375 9.0625C8.8125 9.03125 8.40625 8.9375 8.28125 8.9375C7.875 8.875 7.5625 8.90625 7.375 9C7.1875 9.09375 7.125 9.1875 7.125 9.25C7.09375 9.375 7.125 9.40625 7.125 9.40625C7.125 9.4375 7.15625 9.46875 7.21875 9.53125C7.4375 9.65625 7.71875 9.75 8.15625 9.875H8.1875C8.5625 10 9.0625 10.1562 9.46875 10.4375C9.65625 10.5938 9.875 10.7812 9.96875 11.0625C10.0938 11.3438 10.125 11.6562 10.0625 12C9.96875 12.5938 9.59375 13 9.09375 13.1875C8.9375 13.25 8.78125 13.3125 8.59375 13.3438V13.5V14.125H7.34375V13.5V13.3125C7.0625 13.25 6.65625 13.125 6.4375 13.0312C6.375 13 6.3125 13 6.28125 13L5.6875 12.7812L6.09375 11.5938L6.6875 11.8125C6.75 11.8125 6.8125 11.8438 6.875 11.875C7.1875 11.9688 7.5 12.0938 7.6875 12.125C8.09375 12.1875 8.40625 12.125 8.59375 12.0625C8.78125 11.9688 8.84375 11.875 8.84375 11.7812C8.875 11.6562 8.84375 11.5938 8.84375 11.5625C8.84375 11.5312 8.8125 11.5 8.71875 11.4375C8.53125 11.3125 8.25 11.2188 7.8125 11.0625H7.75C7.375 10.9375 6.90625 10.8125 6.53125 10.5625C6.34375 10.4062 6.125 10.2188 6 9.9375C5.875 9.65625 5.84375 9.34375 5.875 9.03125C6 8.46875 6.40625 8.0625 6.875 7.875C7.03125 7.78125 7.1875 7.75 7.375 7.6875V7.5V6.875H8.625V7.5Z" fill="currentColor"/></symbol>
	<symbol id="bell" width="14" height="17" viewBox="0 0 14 17" fill="none" xmlns="http://www.w3.org/2000/svg"><path d="M6.5 0.471802H7.5V1.50305C10 1.75305 12 3.87805 12 6.4718V9.5343L13.8438 11.3781L14 11.5343V11.7218V12.9718V13.4718H13.5H0.5H0V12.9718V11.7218V11.5343L0.125 11.3781L2 9.5343V6.4718C2 3.87805 3.96875 1.75305 6.5 1.50305V0.471802ZM7 2.4718C4.78125 2.4718 3 4.2843 3 6.4718V9.7218V9.94055L2.84375 10.0968L1 11.9406V12.4718H13V11.9406L11.125 10.0968L11 9.94055V9.7218V6.4718C11 4.2843 9.1875 2.4718 7 2.4718ZM5 14.4718H6C6 15.0343 6.4375 15.4718 7 15.4718C7.53125 15.4718 8 15.0343 8 14.4718H9C9 15.5968 8.09375 16.4718 7 16.4718C5.875 16.4718 5 15.5968 5 14.4718Z" fill="white" fill-opacity="0.6"/></symbol>
	<symbol id="user" xmlns="http://www.w3.org/2000/svg" width="24" height="24" viewBox="0 0 24 24" fill="none" stroke="currentColor" stroke-width="1" stroke-linecap="round" stroke-linejoin="round" class="icon icon-tabler icons-tabler-outline icon-tabler-user-circle"><path stroke="none" d="M0 0h24v24H0z" fill="none" /><path d="M12 12m-9 0a9 9 0 1 0 18 0a9 9 0 1 0 -18 0" /><path d="M12 10m-3 0a3 3 0 1 0 6 0a3 3 0 1 0 -6 0" /><path d="M6.168 18.849a4 4 0 0 1 3.832 -2.849h4a4 4 0 0 1 3.834 2.855" /></symbol>
	<symbol id="ac4demy-four" width="376" height="418" viewBox="0 0 376 418" fill="none" xmlns="http://www.w3.org/2000/svg"><path d="M239.825 0.50002L353.873 0.5L173.047 290.807L172.571 291.571H173.471L375.5 291.571L375.5 462.5H282.5V384.576V384.076H282L0.900502 384.077L239.825 0.50002Z" stroke="#02CAF6"/></symbol>
	<symbol id="instagram" width="56" height="56" viewBox="0 0 56 56" fill="none" xmlns="http://www.w3.org/2000/svg"><rect y="-0.00012207" width="56" height="56" rx="28" fill="white" fill-opacity="0.08"/><path d="M28 22.6093C30.9531 22.6093 33.3906 25.0468 33.3906 27.9999C33.3906 30.9999 30.9531 33.3905 28 33.3905C25 33.3905 22.6094 30.9999 22.6094 27.9999C22.6094 25.0468 25 22.6093 28 22.6093ZM28 31.5155C29.9219 31.5155 31.4688 29.9686 31.4688 27.9999C31.4688 26.078 29.9219 24.5311 28 24.5311C26.0312 24.5311 24.4844 26.078 24.4844 27.9999C24.4844 29.9686 26.0781 31.5155 28 31.5155ZM34.8438 22.4218C34.8438 21.7186 34.2812 21.1561 33.5781 21.1561C32.875 21.1561 32.3125 21.7186 32.3125 22.4218C32.3125 23.1249 32.875 23.6874 33.5781 23.6874C34.2812 23.6874 34.8438 23.1249 34.8438 22.4218ZM38.4062 23.6874C38.5 25.4218 38.5 30.6249 38.4062 32.3593C38.3125 34.0468 37.9375 35.4999 36.7188 36.7655C35.5 37.9843 34 38.3593 32.3125 38.453C30.5781 38.5468 25.375 38.5468 23.6406 38.453C21.9531 38.3593 20.5 37.9843 19.2344 36.7655C18.0156 35.4999 17.6406 34.0468 17.5469 32.3593C17.4531 30.6249 17.4531 25.4218 17.5469 23.6874C17.6406 21.9999 18.0156 20.4999 19.2344 19.2811C20.5 18.0624 21.9531 17.6874 23.6406 17.5936C25.375 17.4999 30.5781 17.4999 32.3125 17.5936C34 17.6874 35.5 18.0624 36.7188 19.2811C37.9375 20.4999 38.3125 21.9999 38.4062 23.6874ZM36.1562 34.1874C36.7188 32.828 36.5781 29.5468 36.5781 27.9999C36.5781 26.4999 36.7188 23.2186 36.1562 21.8124C35.7812 20.9218 35.0781 20.1718 34.1875 19.8436C32.7812 19.2811 29.5 19.4218 28 19.4218C26.4531 19.4218 23.1719 19.2811 21.8125 19.8436C20.875 20.2186 20.1719 20.9218 19.7969 21.8124C19.2344 23.2186 19.375 26.4999 19.375 27.9999C19.375 29.5468 19.2344 32.828 19.7969 34.1874C20.1719 35.1249 20.875 35.828 21.8125 36.203C23.1719 36.7655 26.4531 36.6249 28 36.6249C29.5 36.6249 32.7812 36.7655 34.1875 36.203C35.0781 35.828 35.8281 35.1249 36.1562 34.1874Z" fill="white"/></symbol>
	<symbol id="facebook" width="56" height="56" viewBox="0 0 56 56" fill="none" xmlns="http://www.w3.org/2000/svg"><rect y="-0.00012207" width="56" height="56" rx="28" fill="white" fill-opacity="0.08"/><path d="M40 27.9999C40 34.1405 35.3594 39.203 29.4531 39.953V31.703H32.6875L33.3438 27.9999H29.4531V26.7343C29.4531 24.7655 30.2031 24.0155 32.1719 24.0155C32.7812 24.0155 33.25 24.0624 33.5312 24.0624V20.7811C33.0156 20.5936 31.7031 20.453 30.9531 20.453C26.9219 20.453 25.0938 22.3749 25.0938 26.453V27.9999H22.6094V31.703H25.0938V39.6718C19.8438 38.3593 16 33.6249 16 27.9999C16 21.3905 21.3438 15.9999 28 15.9999C34.6094 15.9999 40 21.3905 40 27.9999Z" fill="white"/></symbol>
	<symbol id="tiktok" width="56" height="56" viewBox="0 0 56 56" fill="none" xmlns="http://www.w3.org/2000/svg"><rect y="-0.00012207" width="56" height="56" rx="28" fill="white" fill-opacity="0.08"/><path d="M38.5 25.8436C36.3906 25.8905 34.4219 25.2343 32.7344 24.0155V32.4061C32.7344 35.5936 30.7656 38.4061 27.7656 39.5311C24.8125 40.6561 21.4375 39.8124 19.375 37.4218C17.2656 34.9843 16.8906 31.5624 18.3906 28.7499C19.8906 25.9843 22.9844 24.4374 26.1719 24.8593V29.078C24.7188 28.6093 23.125 29.1249 22.2344 30.3436C21.3906 31.6093 21.3906 33.2499 22.2812 34.4686C23.1719 35.6874 24.7656 36.203 26.1719 35.7343C27.625 35.2655 28.6094 33.9061 28.6094 32.4061V15.9999H32.7344C32.7344 16.3749 32.7344 16.703 32.8281 17.078C33.1094 18.6249 34 19.9843 35.3594 20.828C36.25 21.4374 37.375 21.7655 38.5 21.7655V25.8436Z" fill="white"/></symbol>
</svg>
